<svg width="96" height="96" viewBox="0 0 96 96" fill="none" xmlns="http://www.w3.org/2000/svg">
  <defs>
    <linearGradient id="codebasesLifecycleGradient" x1="17" y1="18" x2="79" y2="78" gradientUnits="userSpaceOnUse">
      <stop stop-color="#DC2626"/>
      <stop offset="1" stop-color="#E11D48"/>
    </linearGradient>
  </defs>
  <rect x="10" y="10" width="76" height="76" rx="22" fill="#0F172A"/>
  <rect x="18" y="18" width="60" height="16" rx="8" fill="url(#codebasesLifecycleGradient)"/>
  <rect x="18" y="40" width="18" height="18" rx="6" fill="white"/>
  <rect x="39" y="40" width="18" height="18" rx="6" fill="#FFE4E6"/>
  <rect x="60" y="40" width="18" height="18" rx="6" fill="#FEE2E2"/>
  <path d="M27 58V70C27 72.2091 28.7909 74 31 74H67C69.2091 74 71 72.2091 71 70V58" stroke="white" stroke-width="4" stroke-linecap="round"/>
  <path d="M37 49H39M58 49H60" stroke="#0F172A" stroke-width="3.5" stroke-linecap="round"/>
  <path d="M36 49H39" stroke="#E11D48" stroke-width="3.5" stroke-linecap="round"/>
  <path d="M57 49H60" stroke="#DC2626" stroke-width="3.5" stroke-linecap="round"/>
  <path d="M28 26H68" stroke="white" stroke-width="4" stroke-linecap="round" opacity="0.88"/>
  <path d="M31 66H65" stroke="url(#codebasesLifecycleGradient)" stroke-width="4" stroke-linecap="round"/>
</svg>
